<svg data-v-fde0c5aa="" xmlns="http://www.w3.org/2000/svg" viewBox="0 0 300 300" class="iconLeftSlogan"><!----><defs data-v-fde0c5aa=""><!----></defs><rect data-v-fde0c5aa="" fill="#481C3E" x="0" y="0" width="300px" height="300px" class="logo-background-square"></rect><defs data-v-fde0c5aa=""><!----></defs><g data-v-fde0c5aa="" id="514d76ee-e87e-457c-b557-3c6fbfdbc495" fill="#C6565B" transform="matrix(2.273261698059095,0,0,2.273261698059095,108.73715829705458,117.1764520962169)"><path d="M6.68 8.79L7.49 4.98Q6.92 5.29 6.27 6.14Q5.63 6.99 4.97 8.30L4.97 8.30Q5.47 8.40 5.90 8.53Q6.33 8.65 6.68 8.79L6.68 8.79ZM8.58 3.99L8.58 3.99Q8.88 3.99 9.17 4.04Q9.46 4.09 9.69 4.19L9.69 4.19L7.49 14.49L5.47 14.49L6.55 9.41Q6.06 9.18 5.63 9.07Q5.19 8.95 4.68 8.90L4.68 8.90Q3.88 10.64 3.37 12.43Q2.86 14.22 2.86 15.30L2.86 15.30Q2.86 15.55 2.91 15.74Q2.95 15.93 3.05 16.09L3.05 16.09Q1.99 16.09 1.58 15.72Q1.18 15.36 1.18 14.60L1.18 14.60Q1.18 13.66 1.74 12.10Q2.31 10.53 3.23 8.90L3.23 8.90Q2.52 8.95 2.12 9.13Q1.72 9.31 1.60 9.63L1.60 9.63Q1.65 9.63 1.72 9.78Q1.78 9.93 1.78 10.07L1.78 10.07Q1.78 10.30 1.55 10.46Q1.33 10.61 0.99 10.61L0.99 10.61Q0.60 10.61 0.36 10.39Q0.13 10.18 0.13 9.80L0.13 9.80Q0.13 9.07 0.95 8.57Q1.76 8.08 2.98 8.08L2.98 8.08Q3.12 8.08 3.30 8.09Q3.49 8.09 3.71 8.12L3.71 8.12Q4.94 6.17 6.22 5.08Q7.49 3.99 8.58 3.99ZM11.69 13.22L11.69 13.22Q12.05 13.22 12.34 12.90Q12.63 12.59 12.81 11.98L12.81 11.98L13.76 7.49L15.78 7.49L14.77 12.25Q14.74 12.38 14.73 12.48Q14.71 12.59 14.71 12.70L14.71 12.70Q14.71 12.98 14.85 13.10Q14.98 13.22 15.29 13.22L15.29 13.22Q15.65 13.22 15.95 12.89Q16.24 12.57 16.42 11.98L16.42 11.98L17.01 11.98Q16.56 13.27 15.85 13.92Q15.13 14.57 14.20 14.57L14.20 14.57Q13.59 14.57 13.23 14.23Q12.87 13.89 12.81 13.24L12.81 13.24Q12.40 13.92 11.89 14.25Q11.38 14.57 10.74 14.57L10.74 14.57Q10.04 14.57 9.64 14.13Q9.24 13.69 9.24 12.89L9.24 12.89Q9.24 12.71 9.27 12.48Q9.30 12.25 9.35 11.98L9.35 11.98L10.30 7.49L12.32 7.49L11.31 12.25Q11.28 12.36 11.28 12.45Q11.27 12.54 11.27 12.64L11.27 12.64Q11.27 12.92 11.38 13.07Q11.48 13.22 11.69 13.22ZM19.03 9.17L17.91 14.49L15.89 14.49L17.37 7.49L19.39 7.49L19.21 8.36Q19.82 7.84 20.18 7.67Q20.54 7.49 20.90 7.49L20.90 7.49Q21.34 7.49 21.60 7.79Q21.87 8.09 21.87 8.54L21.87 8.54Q21.87 8.97 21.59 9.27Q21.31 9.56 20.86 9.56L20.86 9.56Q20.62 9.56 20.49 9.45Q20.36 9.34 20.30 8.99L20.30 8.99Q20.26 8.76 20.20 8.70Q20.15 8.64 20.05 8.64L20.05 8.64Q19.81 8.64 19.60 8.74Q19.39 8.83 19.03 9.17L19.03 9.17ZM26.00 8.13L26.00 8.13L26.00 8.23L26.15 7.49L28.17 7.49L27.16 12.25Q27.13 12.38 27.12 12.48Q27.10 12.59 27.10 12.70L27.10 12.70Q27.10 13.01 27.24 13.15Q27.38 13.30 27.68 13.30L27.68 13.30Q28.04 13.30 28.34 12.96Q28.63 12.61 28.81 11.98L28.81 11.98L29.40 11.98Q28.95 13.27 28.24 13.92Q27.52 14.57 26.59 14.57L26.59 14.57Q25.98 14.57 25.63 14.24Q25.27 13.90 25.21 13.29L25.21 13.29Q24.78 13.93 24.25 14.25Q23.73 14.57 23.13 14.57L23.13 14.57Q22.26 14.57 21.76 13.99Q21.27 13.40 21.27 12.32L21.27 12.32Q21.27 11.54 21.50 10.68Q21.74 9.83 22.16 9.13L22.16 9.13Q22.68 8.30 23.37 7.86Q24.05 7.42 24.86 7.42L24.86 7.42Q25.41 7.42 25.70 7.61Q26.00 7.80 26.00 8.13ZM25.20 11.98L25.87 8.82Q25.87 8.61 25.72 8.45Q25.56 8.29 25.30 8.29L25.30 8.29Q24.53 8.29 23.93 9.58Q23.34 10.86 23.34 12.12L23.34 12.12Q23.34 12.67 23.49 12.94Q23.65 13.22 24.04 13.22L24.04 13.22Q24.40 13.22 24.75 12.87Q25.09 12.52 25.20 11.98L25.20 11.98ZM31.40 11.19L31.40 11.19Q31.40 12.35 31.81 12.86Q32.21 13.37 33.08 13.37L33.08 13.37Q33.88 13.37 34.60 13.00Q35.32 12.63 35.81 11.97L35.81 11.97L36.13 12.11Q35.67 13.30 34.53 14.01Q33.39 14.71 32.14 14.71L32.14 14.71Q30.52 14.71 29.80 13.89Q29.08 13.08 29.08 11.27L29.08 11.27Q29.08 10.11 29.37 8.85Q29.67 7.59 30.18 6.59L30.18 6.59Q30.86 5.32 31.82 4.65Q32.77 3.99 33.96 3.99L33.96 3.99Q35.08 3.99 35.69 4.47Q36.30 4.96 36.30 5.87L36.30 5.87Q36.30 6.50 36.05 6.83Q35.80 7.15 35.32 7.15L35.32 7.15Q35.08 7.15 34.88 7.06Q34.68 6.97 34.52 6.79L34.52 6.79Q34.78 6.66 34.97 6.28Q35.17 5.89 35.17 5.50L35.17 5.50Q35.17 5.10 34.94 4.87Q34.72 4.65 34.31 4.65L34.31 4.65Q33.70 4.65 33.10 5.40Q32.49 6.15 32.05 7.46L32.05 7.46Q31.74 8.36 31.57 9.33Q31.40 10.30 31.40 11.19ZM39.17 12.99L39.17 12.99Q39.17 12.74 39.23 12.36Q39.30 11.98 39.49 11.16L39.49 11.16Q39.69 10.36 39.75 10.01Q39.80 9.66 39.80 9.42L39.80 9.42Q39.80 9.07 39.67 8.89Q39.54 8.71 39.28 8.71L39.28 8.71Q38.95 8.71 38.63 9.11Q38.32 9.51 38.22 9.94L38.22 9.94L37.25 14.49L35.24 14.49L37.27 4.97L39.34 4.69L38.58 8.22Q38.93 7.83 39.34 7.63Q39.75 7.43 40.22 7.43L40.22 7.43Q40.96 7.43 41.37 7.84Q41.78 8.25 41.78 9.02L41.78 9.02Q41.78 9.34 41.70 9.78Q41.62 10.22 41.40 11.13L41.40 11.13Q41.22 11.84 41.16 12.14Q41.10 12.43 41.10 12.63L41.10 12.63Q41.10 12.92 41.24 13.07Q41.38 13.22 41.66 13.22L41.66 13.22Q42.01 13.22 42.27 12.98Q42.52 12.74 42.84 11.98L42.84 11.98L43.43 11.98Q42.98 13.29 42.34 13.93Q41.71 14.57 40.82 14.57L40.82 14.57Q40.04 14.57 39.61 14.15Q39.17 13.72 39.17 12.99ZM47.39 8.13L47.39 8.13L47.39 8.23L47.54 7.49L49.56 7.49L48.55 12.25Q48.52 12.38 48.51 12.48Q48.50 12.59 48.50 12.70L48.50 12.70Q48.50 13.01 48.64 13.15Q48.78 13.30 49.07 13.30L49.07 13.30Q49.43 13.30 49.73 12.96Q50.02 12.61 50.20 11.98L50.20 11.98L50.79 11.98Q50.34 13.27 49.63 13.92Q48.92 14.57 47.98 14.57L47.98 14.57Q47.38 14.57 47.02 14.24Q46.66 13.90 46.61 13.29L46.61 13.29Q46.17 13.93 45.65 14.25Q45.12 14.57 44.52 14.57L44.52 14.57Q43.65 14.57 43.16 13.99Q42.66 13.40 42.66 12.32L42.66 12.32Q42.66 11.54 42.90 10.68Q43.13 9.83 43.55 9.13L43.55 9.13Q44.07 8.30 44.76 7.86Q45.44 7.42 46.26 7.42L46.26 7.42Q46.80 7.42 47.10 7.61Q47.39 7.80 47.39 8.13ZM46.59 11.98L47.26 8.82Q47.26 8.61 47.11 8.45Q46.96 8.29 46.69 8.29L46.69 8.29Q45.92 8.29 45.33 9.58Q44.73 10.86 44.73 12.12L44.73 12.12Q44.73 12.67 44.88 12.94Q45.04 13.22 45.43 13.22L45.43 13.22Q45.79 13.22 46.14 12.87Q46.48 12.52 46.59 11.98L46.59 11.98ZM52.77 9.17L51.65 14.49L49.63 14.49L51.11 7.49L53.13 7.49L52.95 8.36Q53.56 7.84 53.92 7.67Q54.28 7.49 54.64 7.49L54.64 7.49Q55.08 7.49 55.34 7.79Q55.61 8.09 55.61 8.54L55.61 8.54Q55.61 8.97 55.33 9.27Q55.05 9.56 54.60 9.56L54.60 9.56Q54.36 9.56 54.23 9.45Q54.10 9.34 54.04 8.99L54.04 8.99Q54.00 8.76 53.94 8.70Q53.89 8.64 53.79 8.64L53.79 8.64Q53.55 8.64 53.34 8.74Q53.13 8.83 52.77 9.17L52.77 9.17ZM62.29 12.99L62.29 12.99Q62.29 12.74 62.35 12.36Q62.41 11.98 62.61 11.16L62.61 11.16Q62.80 10.36 62.86 10.01Q62.92 9.66 62.92 9.42L62.92 9.42Q62.92 9.07 62.79 8.89Q62.66 8.71 62.41 8.71L62.41 8.71Q62.08 8.71 61.79 9.05Q61.50 9.39 61.32 10.00L61.32 10.00L60.37 14.49L58.35 14.49L59.37 9.66Q59.40 9.58 59.41 9.49Q59.42 9.41 59.42 9.31L59.42 9.31Q59.42 9.03 59.30 8.86Q59.19 8.69 59.00 8.69L59.00 8.69Q58.63 8.69 58.34 9.04Q58.04 9.38 57.86 10.00L57.86 10.00L56.91 14.49L54.89 14.49L56.38 7.49L58.39 7.49L58.24 8.22Q58.59 7.81 59.01 7.62Q59.43 7.42 59.95 7.42L59.95 7.42Q60.56 7.42 60.92 7.72Q61.28 8.02 61.39 8.62L61.39 8.62Q61.78 8.02 62.26 7.73Q62.73 7.43 63.34 7.43L63.34 7.43Q64.08 7.43 64.48 7.84Q64.89 8.25 64.89 9.02L64.89 9.02Q64.89 9.34 64.81 9.78Q64.74 10.22 64.51 11.13L64.51 11.13Q64.33 11.84 64.27 12.14Q64.22 12.43 64.22 12.63L64.22 12.63Q64.22 12.92 64.36 13.07Q64.50 13.22 64.78 13.22L64.78 13.22Q65.13 13.22 65.38 12.98Q65.63 12.74 65.95 11.98L65.95 11.98L66.54 11.98Q66.09 13.29 65.46 13.93Q64.82 14.57 63.94 14.57L63.94 14.57Q63.15 14.57 62.72 14.15Q62.29 13.72 62.29 12.99Z"></path></g><defs data-v-fde0c5aa=""><!----></defs><g data-v-fde0c5aa="" id="fcff0bb3-6c4a-4c6d-828e-df09fa94d3ca" stroke="none" fill="#C6565B" transform="matrix(1.7504743906615323,0,0,1.7504743906615323,40.00875237257281,121.9924099580883)"><path d="M16 23.787L8.102 16 16 8.213 23.898 16 16 23.787zM9.525 16L16 22.383 22.475 16 16 9.617 9.525 16z"></path><path d="M15.915 31.778L-.005 16.084 16.085.222l15.92 15.694-16.09 15.862zM1.419 16.084l14.496 14.29 14.666-14.458-14.496-14.29L1.419 16.084z"></path><path d="M15.5.924h1v30.152h-1z"></path></g><defs data-v-fde0c5aa=""><!----></defs><g data-v-fde0c5aa="" id="0142f5a4-594e-46e8-805e-ca4adc28d3cd" fill="#C6565B" transform="matrix(0.4954296307701004,0,0,0.4954296307701004,108.74037880827139,162.31648773036665)"><path d="M0.59 7.91C0.59 11.40 2.95 12.89 5.54 12.89C7.43 12.89 9.44 11.89 9.44 11.58C9.44 11.12 9.45 10.68 9.45 10.33C9.45 9.81 9.46 9.56 9.59 9.56L10.02 9.56C10.16 9.56 10.18 9.39 10.18 9.30C10.18 9.18 10.16 9.06 10.02 9.06C9.80 9.06 9.44 9.10 8.76 9.10C8.32 9.10 7.57 9.07 6.89 9.06C6.75 9.06 6.75 9.24 6.75 9.35C6.75 9.45 6.78 9.56 6.90 9.56L8.12 9.56C8.16 9.56 8.22 9.87 8.22 10.33C8.22 10.82 8.20 11.41 8.18 11.65C8.16 11.76 7.52 12.39 5.94 12.39C3.70 12.39 2.10 10.29 2.10 7.94C2.10 5.42 3.65 3.54 5.66 3.54C7.55 3.54 8.72 4.87 8.72 5.03C8.72 5.15 8.67 6.12 8.67 6.17C8.67 6.31 8.71 6.36 8.97 6.36C9.17 6.36 9.24 6.33 9.24 6.15C9.24 5.43 9.28 3.75 9.28 3.56C9.28 3.36 9.18 3.33 8.97 3.33C8.75 3.33 8.72 3.39 8.72 3.56L8.72 3.91C8.72 3.99 8.68 4.02 8.55 3.92C8.27 3.72 7.28 3.08 5.71 3.08C2.87 3.08 0.59 4.79 0.59 7.91ZM18.21 3.51C18.21 3.72 18.28 3.79 18.48 3.79L19.29 3.77C19.39 3.77 19.43 6.61 19.43 8.55L19.43 10.42C19.43 11.30 19.42 12.18 19.38 12.18L18.77 12.18C18.55 12.18 18.48 12.19 18.48 12.39C18.48 12.63 18.52 12.68 18.72 12.68C18.84 12.68 19.67 12.64 20.09 12.64C20.51 12.64 21.28 12.68 21.60 12.68C21.77 12.68 21.80 12.61 21.80 12.40C21.80 12.24 21.77 12.18 21.60 12.18L20.79 12.18C20.72 12.18 20.64 9.18 20.64 8.37C20.64 8.30 20.64 8.26 20.75 8.26C21.14 8.26 21.74 8.27 22.04 8.27C24.28 8.32 24.42 10.00 24.42 11.68L24.42 12.49C24.42 12.61 24.47 12.64 24.57 12.64C24.57 12.64 26.01 12.68 26.49 12.68C26.66 12.68 26.71 12.64 26.71 12.53C26.71 12.24 26.66 12.18 26.50 12.18L25.86 12.18C25.76 12.18 25.73 12.14 25.70 11.31C25.62 8.99 24.25 8.34 23.34 8.05C23.20 8.01 23.23 8.01 23.34 7.95C23.93 7.69 25.24 6.94 25.24 5.63C25.24 3.63 23.55 3.21 22.15 3.21C21.83 3.21 20.54 3.29 20.12 3.29C19.70 3.29 18.72 3.26 18.49 3.26C18.31 3.26 18.21 3.28 18.21 3.51ZM20.64 7.80L20.64 4.40C20.64 4.05 20.66 3.68 20.71 3.68C20.92 3.65 21.20 3.65 21.42 3.65C22.72 3.65 23.97 4.47 23.97 5.82C23.97 6.99 23.42 7.57 22.76 7.88C22.72 7.90 22.68 7.90 22.61 7.90C22.13 7.88 21.42 7.88 20.82 7.87C20.65 7.87 20.64 7.85 20.64 7.80ZM34.05 12.39C34.05 12.63 34.05 12.68 34.24 12.68C34.41 12.68 34.73 12.64 35.31 12.64C35.92 12.64 36.47 12.68 36.62 12.68C36.79 12.68 36.79 12.61 36.79 12.40C36.79 12.24 36.79 12.18 36.62 12.18L35.55 12.18C35.55 12.18 35.53 12.18 35.53 12.17C35.55 11.87 36.32 9.90 36.67 9.02C36.74 8.83 36.75 8.79 36.96 8.79L39.79 8.79C39.93 8.79 39.93 8.81 40.00 9.03C40.26 9.77 40.98 11.89 40.98 12.17C40.98 12.18 40.96 12.18 40.96 12.18L40.19 12.18C39.97 12.18 39.96 12.19 39.96 12.39C39.96 12.63 39.97 12.68 40.14 12.68C40.46 12.68 41.33 12.64 41.75 12.64C42.17 12.64 42.84 12.68 43.05 12.68C43.19 12.68 43.20 12.61 43.20 12.40C43.20 12.24 43.19 12.18 43.05 12.18L42.56 12.18C42.46 12.18 41.44 9.34 40.88 7.78L39.20 3.07C39.19 3.00 39.12 2.94 39.03 2.94C38.91 2.94 38.81 3.16 38.72 3.35C38.57 3.71 38.33 3.84 38.22 4.13L36.74 7.57C36.55 8.01 34.85 12.18 34.72 12.18L34.30 12.18C34.08 12.18 34.05 12.19 34.05 12.39ZM36.95 8.33C36.95 8.30 36.97 8.23 37.02 8.13L38.39 4.77C38.43 4.66 38.46 4.61 38.49 4.61C38.50 4.61 38.51 4.63 38.56 4.77L39.72 8.18C39.75 8.25 39.76 8.29 39.76 8.32C39.76 8.36 39.73 8.37 39.63 8.37L37.13 8.37C36.95 8.37 36.95 8.34 36.95 8.33ZM50.75 7.91C50.75 11.31 53.12 12.87 55.71 12.87C57.48 12.87 59.26 11.90 59.30 11.59C59.47 10.29 59.53 9.70 59.53 9.66C59.53 9.56 59.49 9.52 59.32 9.51C59.26 9.51 59.21 9.49 59.16 9.49C59.05 9.49 59.00 9.53 58.97 9.70L58.79 11.33C58.77 11.45 57.67 12.24 56.10 12.24C53.97 12.24 52.26 10.29 52.26 7.94C52.26 5.42 53.69 3.54 55.69 3.54C57.54 3.54 58.88 5.01 58.88 5.17C58.88 5.29 58.83 6.40 58.83 6.45C58.83 6.59 58.87 6.64 59.14 6.64C59.33 6.64 59.40 6.62 59.40 6.44C59.40 5.73 59.46 3.92 59.46 3.67C59.46 3.47 59.35 3.44 59.14 3.44C58.91 3.44 58.88 3.50 58.88 3.67L58.88 4.05C58.88 4.16 58.84 4.16 58.72 4.06C58.44 3.86 57.46 3.04 55.79 3.04C52.95 3.04 50.75 4.96 50.75 7.91ZM67.91 12.39C67.91 12.63 67.94 12.68 68.14 12.68C68.46 12.68 69.43 12.64 69.85 12.64C70.27 12.64 74.77 12.68 75.10 12.68C75.22 12.68 75.38 12.66 75.38 12.49C75.38 12.07 75.42 11.23 75.42 10.53C75.42 10.39 75.26 10.39 75.14 10.39C75.03 10.39 74.90 10.39 74.90 10.51C74.89 11.06 74.89 11.41 74.86 11.76C74.83 12.01 74.83 12.04 74.73 12.04C74.58 12.04 71.95 12.08 70.45 12.08C70.38 12.08 70.34 10.11 70.29 8.26C70.29 8.06 70.34 8.09 70.48 8.09L72.76 8.09C73.46 8.09 73.49 8.20 73.49 8.30L73.49 9.00C73.49 9.14 73.67 9.14 73.78 9.14C73.88 9.14 74.00 9.13 74.00 9.02C74.00 8.83 73.98 8.33 73.98 7.83C73.98 7.32 74.00 6.83 74.00 6.71C74.00 6.59 73.86 6.58 73.77 6.58C73.65 6.58 73.49 6.59 73.49 6.72L73.49 7.45C73.49 7.62 73.04 7.63 72.76 7.63L70.42 7.63C70.31 7.63 70.29 7.63 70.29 7.45C70.28 6.75 70.27 6.06 70.27 5.46C70.27 5.12 70.27 3.71 70.35 3.71C71.58 3.71 74.09 3.75 74.09 3.81C74.09 3.99 74.05 4.83 74.05 4.89C74.05 5.04 74.12 5.10 74.30 5.10C74.49 5.10 74.56 5.08 74.56 4.94C74.56 3.85 74.62 3.36 74.62 3.09C74.62 2.91 74.54 2.90 74.34 2.90C74.14 2.90 74.14 2.95 74.12 3.11C74.10 3.25 74.17 3.25 73.26 3.25C72.65 3.25 70.50 3.29 69.73 3.29C69.24 3.29 68.31 3.25 68.21 3.25C68.08 3.25 68.03 3.30 68.03 3.49C68.03 3.72 68.10 3.74 68.26 3.74L68.92 3.74C68.98 3.74 69.05 4.79 69.05 5.71C69.05 5.80 69.10 8.27 69.10 9.83L69.10 11.17C69.10 11.84 69.08 12.18 69.05 12.18L68.19 12.18C67.97 12.18 67.91 12.21 67.91 12.39ZM93.04 12.39C93.04 12.63 93.09 12.68 93.28 12.68C93.60 12.68 94.36 12.64 95.07 12.64C95.73 12.64 96.53 12.68 96.75 12.68C96.92 12.68 96.95 12.61 96.95 12.40C96.95 12.24 96.92 12.18 96.75 12.18L95.79 12.18C95.69 12.18 95.66 9.55 95.66 7.76L95.66 5.87C95.66 5.14 95.69 3.70 95.79 3.70L96.70 3.70C96.92 3.70 96.95 3.68 96.95 3.49C96.95 3.25 96.92 3.19 96.75 3.19C96.43 3.19 95.76 3.23 95.10 3.23C94.29 3.23 93.58 3.19 93.35 3.19C93.17 3.19 93.10 3.21 93.10 3.44C93.10 3.68 93.18 3.70 93.35 3.70L94.28 3.70C94.32 3.70 94.39 4.79 94.39 5.71L94.39 7.08C94.39 8.92 94.37 12.18 94.26 12.18L93.34 12.18C93.11 12.18 93.04 12.19 93.04 12.39ZM104.85 12.39C104.85 12.63 104.86 12.68 105.06 12.68C105.24 12.68 105.62 12.64 106.23 12.64C106.86 12.64 107.42 12.68 107.74 12.68C107.91 12.68 107.91 12.61 107.91 12.40C107.91 12.24 107.91 12.18 107.74 12.18L106.54 12.18C106.50 12.18 106.48 11.54 106.48 10.79C106.48 9.46 106.50 7.48 106.50 5.99C106.50 5.25 106.50 4.84 106.51 4.28C106.51 4.02 106.58 4.14 106.71 4.28L113.60 12.66C113.68 12.75 113.76 12.89 113.88 12.89C113.99 12.89 114.06 12.77 114.06 12.54C114.06 12.39 114.23 6.65 114.24 4.48C114.24 4.06 114.27 3.70 114.30 3.70L114.93 3.70C115.15 3.70 115.21 3.68 115.21 3.49C115.21 3.25 115.21 3.19 115.01 3.19C114.81 3.19 114.38 3.23 113.82 3.23C113.20 3.23 112.41 3.19 112.31 3.19C112.14 3.19 112.14 3.26 112.14 3.47C112.14 3.64 112.14 3.70 112.31 3.70L113.61 3.70C113.62 3.70 113.62 4.33 113.62 4.44C113.62 5.85 113.65 8.33 113.65 9.70L113.65 10.29C113.65 10.57 113.64 10.65 113.41 10.37L107.73 3.39C107.62 3.25 107.59 3.19 107.42 3.19C107.34 3.19 106.96 3.23 106.65 3.23C106.36 3.23 105.28 3.19 105.08 3.19C104.92 3.19 104.89 3.26 104.89 3.47C104.89 3.64 104.92 3.70 105.08 3.70L105.99 3.70C105.99 4.17 105.95 8.53 105.88 10.79C105.85 11.69 105.87 12.18 105.76 12.18L105.11 12.18C104.89 12.18 104.85 12.19 104.85 12.39ZM133.04 12.39C133.04 12.63 133.07 12.68 133.27 12.68C133.59 12.68 134.55 12.64 134.97 12.64C135.39 12.64 139.90 12.68 140.22 12.68C140.35 12.68 140.50 12.66 140.50 12.49C140.50 12.07 140.55 11.23 140.55 10.53C140.55 10.39 140.39 10.39 140.27 10.39C140.15 10.39 140.03 10.39 140.03 10.51C140.01 11.06 140.01 11.41 139.99 11.76C139.96 12.01 139.96 12.04 139.86 12.04C139.71 12.04 137.07 12.08 135.58 12.08C135.51 12.08 135.46 10.11 135.42 8.26C135.42 8.06 135.46 8.09 135.60 8.09L137.89 8.09C138.59 8.09 138.61 8.20 138.61 8.30L138.61 9.00C138.61 9.14 138.80 9.14 138.91 9.14C139.01 9.14 139.13 9.13 139.13 9.02C139.13 8.83 139.10 8.33 139.10 7.83C139.10 7.32 139.13 6.83 139.13 6.71C139.13 6.59 138.99 6.58 138.89 6.58C138.78 6.58 138.61 6.59 138.61 6.72L138.61 7.45C138.61 7.62 138.17 7.63 137.89 7.63L135.55 7.63C135.44 7.63 135.42 7.63 135.42 7.45C135.41 6.75 135.39 6.06 135.39 5.46C135.39 5.12 135.39 3.71 135.48 3.71C136.71 3.71 139.22 3.75 139.22 3.81C139.22 3.99 139.17 4.83 139.17 4.89C139.17 5.04 139.24 5.10 139.43 5.10C139.62 5.10 139.69 5.08 139.69 4.94C139.69 3.85 139.75 3.36 139.75 3.09C139.75 2.91 139.66 2.90 139.47 2.90C139.27 2.90 139.27 2.95 139.24 3.11C139.23 3.25 139.30 3.25 138.39 3.25C137.77 3.25 135.63 3.29 134.86 3.29C134.37 3.29 133.43 3.25 133.34 3.25C133.21 3.25 133.15 3.30 133.15 3.49C133.15 3.72 133.22 3.74 133.39 3.74L134.05 3.74C134.11 3.74 134.18 4.79 134.18 5.71C134.18 5.80 134.23 8.27 134.23 9.83L134.23 11.17C134.23 11.84 134.20 12.18 134.18 12.18L133.32 12.18C133.10 12.18 133.04 12.21 133.04 12.39ZM148.09 3.51C148.09 3.75 148.19 3.77 148.36 3.77L148.79 3.77C148.88 3.77 151.66 10.99 151.70 11.07C152.19 12.18 152.29 12.99 152.50 12.99C152.77 12.99 152.82 12.67 153.10 12.26C153.26 12.04 153.34 12.01 153.50 11.66L156.73 4.06C156.84 3.81 156.83 3.77 157.19 3.77C157.42 3.77 157.49 3.75 157.49 3.56C157.49 3.32 157.44 3.26 157.25 3.26C157.11 3.26 156.58 3.30 156.16 3.30C155.74 3.30 154.91 3.26 154.69 3.26C154.49 3.26 154.43 3.29 154.43 3.51C154.43 3.75 154.56 3.77 154.73 3.77L155.72 3.77C155.79 3.77 155.81 3.81 155.81 3.95C155.81 4.63 154.13 8.72 153.40 10.63C153.26 10.99 153.17 11.17 153.13 11.17C153.09 11.17 152.99 10.98 152.85 10.60C152.28 9.10 151.14 6.01 150.63 4.49C150.54 4.27 150.46 3.93 150.46 3.79L150.46 3.77L151.44 3.77C151.66 3.77 151.73 3.75 151.73 3.56C151.73 3.32 151.69 3.26 151.49 3.26C151.17 3.26 150.09 3.30 149.67 3.30C149.25 3.30 148.54 3.26 148.36 3.26C148.18 3.26 148.09 3.28 148.09 3.51ZM165.10 12.39C165.10 12.63 165.13 12.68 165.33 12.68C165.65 12.68 166.61 12.64 167.03 12.64C167.45 12.64 171.96 12.68 172.28 12.68C172.41 12.68 172.56 12.66 172.56 12.49C172.56 12.07 172.61 11.23 172.61 10.53C172.61 10.39 172.45 10.39 172.33 10.39C172.21 10.39 172.09 10.39 172.09 10.51C172.07 11.06 172.07 11.41 172.05 11.76C172.02 12.01 172.02 12.04 171.92 12.04C171.77 12.04 169.13 12.08 167.64 12.08C167.57 12.08 167.52 10.11 167.48 8.26C167.48 8.06 167.52 8.09 167.66 8.09L169.95 8.09C170.65 8.09 170.67 8.20 170.67 8.30L170.67 9.00C170.67 9.14 170.86 9.14 170.97 9.14C171.07 9.14 171.19 9.13 171.19 9.02C171.19 8.83 171.16 8.33 171.16 7.83C171.16 7.32 171.19 6.83 171.19 6.71C171.19 6.59 171.05 6.58 170.95 6.58C170.84 6.58 170.67 6.59 170.67 6.72L170.67 7.45C170.67 7.62 170.23 7.63 169.95 7.63L167.61 7.63C167.50 7.63 167.48 7.63 167.48 7.45C167.47 6.75 167.45 6.06 167.45 5.46C167.45 5.12 167.45 3.71 167.54 3.71C168.77 3.71 171.28 3.75 171.28 3.81C171.28 3.99 171.23 4.83 171.23 4.89C171.23 5.04 171.30 5.10 171.49 5.10C171.68 5.10 171.75 5.08 171.75 4.94C171.75 3.85 171.81 3.36 171.81 3.09C171.81 2.91 171.72 2.90 171.53 2.90C171.33 2.90 171.33 2.95 171.30 3.11C171.29 3.25 171.36 3.25 170.45 3.25C169.83 3.25 167.69 3.29 166.92 3.29C166.43 3.29 165.49 3.25 165.40 3.25C165.27 3.25 165.21 3.30 165.21 3.49C165.21 3.72 165.28 3.74 165.45 3.74L166.11 3.74C166.17 3.74 166.24 4.79 166.24 5.71C166.24 5.80 166.29 8.27 166.29 9.83L166.29 11.17C166.29 11.84 166.26 12.18 166.24 12.18L165.38 12.18C165.16 12.18 165.10 12.21 165.10 12.39ZM180.57 3.51C180.57 3.72 180.64 3.79 180.84 3.79L181.65 3.77C181.75 3.77 181.79 6.61 181.79 8.55L181.79 10.42C181.79 11.30 181.78 12.18 181.73 12.18L181.13 12.18C180.91 12.18 180.84 12.19 180.84 12.39C180.84 12.63 180.88 12.68 181.08 12.68C181.20 12.68 182.03 12.64 182.45 12.64C182.87 12.64 183.64 12.68 183.96 12.68C184.13 12.68 184.16 12.61 184.16 12.40C184.16 12.24 184.13 12.18 183.96 12.18L183.15 12.18C183.08 12.18 182.99 9.18 182.99 8.37C182.99 8.30 182.99 8.26 183.11 8.26C183.50 8.26 184.10 8.27 184.39 8.27C186.63 8.32 186.77 10.00 186.77 11.68L186.77 12.49C186.77 12.61 186.83 12.64 186.93 12.64C186.93 12.64 188.37 12.68 188.85 12.68C189.01 12.68 189.07 12.64 189.07 12.53C189.07 12.24 189.01 12.18 188.86 12.18L188.22 12.18C188.12 12.18 188.09 12.14 188.06 11.31C187.98 8.99 186.61 8.34 185.70 8.05C185.56 8.01 185.58 8.01 185.70 7.95C186.28 7.69 187.60 6.94 187.60 5.63C187.60 3.63 185.91 3.21 184.51 3.21C184.18 3.21 182.90 3.29 182.48 3.29C182.06 3.29 181.08 3.26 180.85 3.26C180.67 3.26 180.57 3.28 180.57 3.51ZM182.99 7.80L182.99 4.40C182.99 4.05 183.02 3.68 183.06 3.68C183.27 3.65 183.55 3.65 183.78 3.65C185.08 3.65 186.33 4.47 186.33 5.82C186.33 6.99 185.78 7.57 185.12 7.88C185.08 7.90 185.04 7.90 184.97 7.90C184.49 7.88 183.78 7.88 183.18 7.87C183.01 7.87 182.99 7.85 182.99 7.80ZM195.71 3.44C195.71 3.68 195.79 3.70 195.96 3.70L196.36 3.70C196.49 3.70 198.74 7.74 199.15 8.50C199.21 8.60 199.25 8.65 199.25 8.81C199.25 10.50 199.23 12.18 199.11 12.18L198.39 12.18C198.17 12.18 198.13 12.19 198.13 12.39C198.13 12.63 198.14 12.68 198.34 12.68C198.53 12.68 199.35 12.64 199.93 12.64C200.76 12.64 201.29 12.68 201.61 12.68C201.78 12.68 201.81 12.61 201.81 12.40C201.81 12.24 201.78 12.18 201.61 12.18L200.65 12.18C200.55 12.18 200.52 9.72 200.52 8.22C200.52 8.18 200.52 8.15 200.56 8.09C201.11 7.22 203.06 3.70 203.13 3.70L203.60 3.70C203.77 3.70 203.87 3.68 203.87 3.44C203.87 3.22 203.78 3.19 203.60 3.19C203.38 3.19 203.14 3.23 202.54 3.23C201.95 3.23 201.61 3.19 201.45 3.19C201.25 3.19 201.21 3.25 201.21 3.49C201.21 3.68 201.28 3.70 201.50 3.70L202.23 3.70C202.24 3.70 202.26 3.71 202.26 3.74C202.26 4.05 200.69 6.99 200.31 7.71C200.20 7.92 200.20 7.88 200.09 7.67C199.68 6.89 198.39 4.56 198.10 3.85C198.04 3.71 198.03 3.70 198.21 3.70L199.04 3.70C199.26 3.70 199.29 3.68 199.29 3.49C199.29 3.25 199.25 3.19 199.09 3.19C198.86 3.19 198.24 3.23 197.44 3.23C196.63 3.23 196.14 3.19 195.96 3.19C195.78 3.19 195.71 3.21 195.71 3.44ZM221.21 12.46C221.21 12.63 221.23 12.70 221.41 12.70C221.56 12.70 222.80 12.64 223.19 12.64C224.04 12.64 224.92 12.70 225.78 12.70C228.40 12.70 230.79 11.07 230.79 7.91C230.79 4.89 228.45 3.07 225.41 3.07C224.85 3.07 223.59 3.23 222.56 3.23C222.08 3.23 221.62 3.22 221.56 3.22C221.38 3.22 221.37 3.32 221.37 3.49C221.37 3.68 221.44 3.70 221.56 3.70L222.53 3.67C222.56 3.67 222.56 4.20 222.56 4.72C222.56 5.91 222.47 12.21 222.39 12.21L221.49 12.21C221.31 12.21 221.21 12.22 221.21 12.46ZM223.79 11.40C223.79 9.46 223.79 7.52 223.80 5.60C223.80 5.03 223.85 3.61 223.89 3.60C224.18 3.53 224.77 3.51 225.12 3.51C227.68 3.51 229.29 5.75 229.29 7.73C229.29 8.95 229.25 12.25 224.57 12.25C224.31 12.25 223.90 12.25 223.80 12.21C223.79 12.19 223.79 11.79 223.79 11.40ZM238.90 12.39C238.90 12.63 238.92 12.68 239.12 12.68C239.44 12.68 240.41 12.64 240.83 12.64C241.25 12.64 245.76 12.68 246.08 12.68C246.20 12.68 246.36 12.66 246.36 12.49C246.36 12.07 246.40 11.23 246.40 10.53C246.40 10.39 246.25 10.39 246.12 10.39C246.01 10.39 245.88 10.39 245.88 10.51C245.87 11.06 245.87 11.41 245.84 11.76C245.81 12.01 245.81 12.04 245.71 12.04C245.56 12.04 242.93 12.08 241.43 12.08C241.36 12.08 241.32 10.11 241.28 8.26C241.28 8.06 241.32 8.09 241.46 8.09L243.74 8.09C244.44 8.09 244.47 8.20 244.47 8.30L244.47 9.00C244.47 9.14 244.65 9.14 244.76 9.14C244.86 9.14 244.99 9.13 244.99 9.02C244.99 8.83 244.96 8.33 244.96 7.83C244.96 7.32 244.99 6.83 244.99 6.71C244.99 6.59 244.85 6.58 244.75 6.58C244.64 6.58 244.47 6.59 244.47 6.72L244.47 7.45C244.47 7.62 244.02 7.63 243.74 7.63L241.40 7.63C241.29 7.63 241.28 7.63 241.28 7.45C241.26 6.75 241.25 6.06 241.25 5.46C241.25 5.12 241.25 3.71 241.33 3.71C242.56 3.71 245.07 3.75 245.07 3.81C245.07 3.99 245.03 4.83 245.03 4.89C245.03 5.04 245.10 5.10 245.28 5.10C245.48 5.10 245.55 5.08 245.55 4.94C245.55 3.85 245.60 3.36 245.60 3.09C245.60 2.91 245.52 2.90 245.32 2.90C245.13 2.90 245.13 2.95 245.10 3.11C245.08 3.25 245.15 3.25 244.24 3.25C243.63 3.25 241.49 3.29 240.72 3.29C240.23 3.29 239.29 3.25 239.19 3.25C239.06 3.25 239.01 3.30 239.01 3.49C239.01 3.72 239.08 3.74 239.25 3.74L239.90 3.74C239.96 3.74 240.03 4.79 240.03 5.71C240.03 5.80 240.09 8.27 240.09 9.83L240.09 11.17C240.09 11.84 240.06 12.18 240.03 12.18L239.18 12.18C238.95 12.18 238.90 12.21 238.90 12.39ZM254.10 5.01C254.10 5.17 254.28 5.17 254.41 5.17C254.56 5.17 254.60 5.15 254.62 4.97L254.73 3.89C254.74 3.81 255.29 3.75 256.05 3.75L258.03 3.75C258.09 3.75 258.12 4.35 258.12 4.97C258.12 6.43 258.06 12.18 257.94 12.18L257.07 12.18C256.84 12.18 256.80 12.19 256.80 12.39C256.80 12.63 256.82 12.68 257.01 12.68C257.33 12.68 258.31 12.64 258.73 12.64C259.15 12.64 260.09 12.68 260.41 12.68C260.58 12.68 260.61 12.61 260.61 12.40C260.61 12.24 260.58 12.18 260.41 12.18L259.42 12.18C259.39 12.18 259.39 11.76 259.39 11.31C259.39 9.56 259.48 5.96 259.48 5.92C259.49 5.18 259.49 3.75 259.59 3.75L261.20 3.75C261.91 3.75 262.74 3.78 262.74 3.85C262.74 3.99 262.70 4.90 262.70 4.97C262.70 5.12 262.77 5.17 262.95 5.17C263.14 5.17 263.21 5.17 263.21 5.03C263.21 3.93 263.27 3.40 263.27 3.14C263.27 2.94 263.19 2.94 262.99 2.94C262.84 2.94 262.78 2.98 262.77 3.16C262.77 3.23 262.12 3.28 261.28 3.28L256.28 3.28C255.63 3.28 254.81 3.28 254.81 3.21L254.81 3.07C254.81 2.94 254.69 2.94 254.59 2.94C254.37 2.94 254.34 3.00 254.32 3.19C254.27 3.89 254.10 4.97 254.10 5.01ZM269.07 12.39C269.07 12.63 269.07 12.68 269.26 12.68C269.43 12.68 269.75 12.64 270.33 12.64C270.94 12.64 271.49 12.68 271.64 12.68C271.81 12.68 271.81 12.61 271.81 12.40C271.81 12.24 271.81 12.18 271.64 12.18L270.56 12.18C270.56 12.18 270.55 12.18 270.55 12.17C270.56 11.87 271.33 9.90 271.68 9.02C271.75 8.83 271.77 8.79 271.98 8.79L274.81 8.79C274.95 8.79 274.95 8.81 275.02 9.03C275.28 9.77 276.00 11.89 276.00 12.17C276.00 12.18 275.98 12.18 275.98 12.18L275.21 12.18C274.99 12.18 274.97 12.19 274.97 12.39C274.97 12.63 274.99 12.68 275.16 12.68C275.48 12.68 276.35 12.64 276.77 12.64C277.19 12.64 277.86 12.68 278.07 12.68C278.21 12.68 278.22 12.61 278.22 12.40C278.22 12.24 278.21 12.18 278.07 12.18L277.58 12.18C277.48 12.18 276.46 9.34 275.90 7.78L274.22 3.07C274.20 3.00 274.13 2.94 274.05 2.94C273.92 2.94 273.83 3.16 273.74 3.35C273.59 3.71 273.35 3.84 273.24 4.13L271.75 7.57C271.57 8.01 269.86 12.18 269.74 12.18L269.32 12.18C269.09 12.18 269.07 12.19 269.07 12.39ZM271.96 8.33C271.96 8.30 271.99 8.23 272.03 8.13L273.41 4.77C273.45 4.66 273.48 4.61 273.50 4.61C273.52 4.61 273.53 4.63 273.57 4.77L274.74 8.18C274.76 8.25 274.78 8.29 274.78 8.32C274.78 8.36 274.75 8.37 274.65 8.37L272.15 8.37C271.96 8.37 271.96 8.34 271.96 8.33ZM285.84 12.39C285.84 12.63 285.88 12.68 286.08 12.68C286.40 12.68 287.15 12.64 287.87 12.64C288.53 12.64 289.32 12.68 289.55 12.68C289.72 12.68 289.74 12.61 289.74 12.40C289.74 12.24 289.72 12.18 289.55 12.18L288.58 12.18C288.48 12.18 288.46 9.55 288.46 7.76L288.46 5.87C288.46 5.14 288.48 3.70 288.58 3.70L289.49 3.70C289.72 3.70 289.74 3.68 289.74 3.49C289.74 3.25 289.72 3.19 289.55 3.19C289.23 3.19 288.55 3.23 287.90 3.23C287.08 3.23 286.37 3.19 286.15 3.19C285.96 3.19 285.89 3.21 285.89 3.44C285.89 3.68 285.98 3.70 286.15 3.70L287.07 3.70C287.11 3.70 287.18 4.79 287.18 5.71L287.18 7.08C287.18 8.92 287.17 12.18 287.06 12.18L286.13 12.18C285.91 12.18 285.84 12.19 285.84 12.39ZM297.64 12.39C297.64 12.63 297.67 12.68 297.86 12.68C298.19 12.68 299.15 12.64 299.57 12.64C299.99 12.64 304.35 12.68 304.67 12.68C304.93 12.68 305.00 12.66 305.02 12.49C305.07 12.08 305.31 10.72 305.31 10.60C305.31 10.47 305.16 10.44 304.99 10.43C304.89 10.42 304.81 10.46 304.79 10.56L304.63 11.76C304.58 12.05 304.57 12.03 304.35 12.04C304.19 12.05 301.69 12.12 300.26 12.12C300.22 12.12 300.17 11.38 300.17 10.54L300.17 6.66C300.17 5.40 300.19 3.70 300.29 3.70L301.27 3.70C301.50 3.70 301.53 3.63 301.53 3.44C301.53 3.23 301.52 3.19 301.28 3.19C300.96 3.19 300.02 3.23 299.60 3.23C299.18 3.23 298.24 3.19 298.02 3.19C297.79 3.19 297.74 3.22 297.74 3.44C297.74 3.65 297.78 3.70 297.98 3.70L298.80 3.70C298.84 3.70 298.87 4.23 298.87 4.90L298.87 8.13C298.87 10.07 298.84 12.18 298.76 12.18L297.92 12.18C297.70 12.18 297.64 12.21 297.64 12.39Z"></path></g></svg>