<svg data-v-423bf9ae="" xmlns="http://www.w3.org/2000/svg" viewBox="0 0 329.305792901353 60" class="font"><!----><!----><!----><g data-v-423bf9ae="" id="a48d90ba-946f-49f2-8f49-01d870e20a5e" fill="white" transform="matrix(4.958677529621045,0,0,4.958677529621045,-0.6446210682680089,-19.78512410573334)"><path d="M6.68 8.79L7.49 4.98Q6.92 5.29 6.27 6.14Q5.63 6.99 4.97 8.30L4.97 8.30Q5.47 8.40 5.90 8.53Q6.33 8.65 6.68 8.79L6.68 8.79ZM8.58 3.99L8.58 3.99Q8.88 3.99 9.17 4.04Q9.46 4.09 9.69 4.19L9.69 4.19L7.49 14.49L5.47 14.49L6.55 9.41Q6.06 9.18 5.63 9.07Q5.19 8.95 4.68 8.90L4.68 8.90Q3.88 10.64 3.37 12.43Q2.86 14.22 2.86 15.30L2.86 15.30Q2.86 15.55 2.91 15.74Q2.95 15.93 3.05 16.09L3.05 16.09Q1.99 16.09 1.58 15.72Q1.18 15.36 1.18 14.60L1.18 14.60Q1.18 13.66 1.74 12.10Q2.31 10.53 3.23 8.90L3.23 8.90Q2.52 8.95 2.12 9.13Q1.72 9.31 1.60 9.63L1.60 9.63Q1.65 9.63 1.72 9.78Q1.78 9.93 1.78 10.07L1.78 10.07Q1.78 10.30 1.55 10.46Q1.33 10.61 0.99 10.61L0.99 10.61Q0.60 10.61 0.36 10.39Q0.13 10.18 0.13 9.80L0.13 9.80Q0.13 9.07 0.95 8.57Q1.76 8.08 2.98 8.08L2.98 8.08Q3.12 8.08 3.30 8.09Q3.49 8.09 3.71 8.12L3.71 8.12Q4.94 6.17 6.22 5.08Q7.49 3.99 8.58 3.99ZM11.69 13.22L11.69 13.22Q12.05 13.22 12.34 12.90Q12.63 12.59 12.81 11.98L12.81 11.98L13.76 7.49L15.78 7.49L14.77 12.25Q14.74 12.38 14.73 12.48Q14.71 12.59 14.71 12.70L14.71 12.70Q14.71 12.98 14.85 13.10Q14.98 13.22 15.29 13.22L15.29 13.22Q15.65 13.22 15.95 12.89Q16.24 12.57 16.42 11.98L16.42 11.98L17.01 11.98Q16.56 13.27 15.85 13.92Q15.13 14.57 14.20 14.57L14.20 14.57Q13.59 14.57 13.23 14.23Q12.87 13.89 12.81 13.24L12.81 13.24Q12.40 13.92 11.89 14.25Q11.38 14.57 10.74 14.57L10.74 14.57Q10.04 14.57 9.64 14.13Q9.24 13.69 9.24 12.89L9.24 12.89Q9.24 12.71 9.27 12.48Q9.30 12.25 9.35 11.98L9.35 11.98L10.30 7.49L12.32 7.49L11.31 12.25Q11.28 12.36 11.28 12.45Q11.27 12.54 11.27 12.64L11.27 12.64Q11.27 12.92 11.38 13.07Q11.48 13.22 11.69 13.22ZM19.03 9.17L17.91 14.49L15.89 14.49L17.37 7.49L19.39 7.49L19.21 8.36Q19.82 7.84 20.18 7.67Q20.54 7.49 20.90 7.49L20.90 7.49Q21.34 7.49 21.60 7.79Q21.87 8.09 21.87 8.54L21.87 8.54Q21.87 8.97 21.59 9.27Q21.31 9.56 20.86 9.56L20.86 9.56Q20.62 9.56 20.49 9.45Q20.36 9.34 20.30 8.99L20.30 8.99Q20.26 8.76 20.20 8.70Q20.15 8.64 20.05 8.64L20.05 8.64Q19.81 8.64 19.60 8.74Q19.39 8.83 19.03 9.17L19.03 9.17ZM26.00 8.13L26.00 8.13L26.00 8.23L26.15 7.49L28.17 7.49L27.16 12.25Q27.13 12.38 27.12 12.48Q27.10 12.59 27.10 12.70L27.10 12.70Q27.10 13.01 27.24 13.15Q27.38 13.30 27.68 13.30L27.68 13.30Q28.04 13.30 28.34 12.96Q28.63 12.61 28.81 11.98L28.81 11.98L29.40 11.98Q28.95 13.27 28.24 13.92Q27.52 14.57 26.59 14.57L26.59 14.57Q25.98 14.57 25.63 14.24Q25.27 13.90 25.21 13.29L25.21 13.29Q24.78 13.93 24.25 14.25Q23.73 14.57 23.13 14.57L23.13 14.57Q22.26 14.57 21.76 13.99Q21.27 13.40 21.27 12.32L21.27 12.32Q21.27 11.54 21.50 10.68Q21.74 9.83 22.16 9.13L22.16 9.13Q22.68 8.30 23.37 7.86Q24.05 7.42 24.86 7.42L24.86 7.42Q25.41 7.42 25.70 7.61Q26.00 7.80 26.00 8.13ZM25.20 11.98L25.87 8.82Q25.87 8.61 25.72 8.45Q25.56 8.29 25.30 8.29L25.30 8.29Q24.53 8.29 23.93 9.58Q23.34 10.86 23.34 12.12L23.34 12.12Q23.34 12.67 23.49 12.94Q23.65 13.22 24.04 13.22L24.04 13.22Q24.40 13.22 24.75 12.87Q25.09 12.52 25.20 11.98L25.20 11.98ZM31.40 11.19L31.40 11.19Q31.40 12.35 31.81 12.86Q32.21 13.37 33.08 13.37L33.08 13.37Q33.88 13.37 34.60 13.00Q35.32 12.63 35.81 11.97L35.81 11.97L36.13 12.11Q35.67 13.30 34.53 14.01Q33.39 14.71 32.14 14.71L32.14 14.71Q30.52 14.71 29.80 13.89Q29.08 13.08 29.08 11.27L29.08 11.27Q29.08 10.11 29.37 8.85Q29.67 7.59 30.18 6.59L30.18 6.59Q30.86 5.32 31.82 4.65Q32.77 3.99 33.96 3.99L33.96 3.99Q35.08 3.99 35.69 4.47Q36.30 4.96 36.30 5.87L36.30 5.87Q36.30 6.50 36.05 6.83Q35.80 7.15 35.32 7.15L35.32 7.15Q35.08 7.15 34.88 7.06Q34.68 6.97 34.52 6.79L34.52 6.79Q34.78 6.66 34.97 6.28Q35.17 5.89 35.17 5.50L35.17 5.50Q35.17 5.10 34.94 4.87Q34.72 4.65 34.31 4.65L34.31 4.65Q33.70 4.65 33.10 5.40Q32.49 6.15 32.05 7.46L32.05 7.46Q31.74 8.36 31.57 9.33Q31.40 10.30 31.40 11.19ZM39.17 12.99L39.17 12.99Q39.17 12.74 39.23 12.36Q39.30 11.98 39.49 11.16L39.49 11.16Q39.69 10.36 39.75 10.01Q39.80 9.66 39.80 9.42L39.80 9.42Q39.80 9.07 39.67 8.89Q39.54 8.71 39.28 8.71L39.28 8.71Q38.95 8.71 38.63 9.11Q38.32 9.51 38.22 9.94L38.22 9.94L37.25 14.49L35.24 14.49L37.27 4.97L39.34 4.69L38.58 8.22Q38.93 7.83 39.34 7.63Q39.75 7.43 40.22 7.43L40.22 7.43Q40.96 7.43 41.37 7.84Q41.78 8.25 41.78 9.02L41.78 9.02Q41.78 9.34 41.70 9.78Q41.62 10.22 41.40 11.13L41.40 11.13Q41.22 11.84 41.16 12.14Q41.10 12.43 41.10 12.63L41.10 12.63Q41.10 12.92 41.24 13.07Q41.38 13.22 41.66 13.22L41.66 13.22Q42.01 13.22 42.27 12.98Q42.52 12.74 42.84 11.98L42.84 11.98L43.43 11.98Q42.98 13.29 42.34 13.93Q41.71 14.57 40.82 14.57L40.82 14.57Q40.04 14.57 39.61 14.15Q39.17 13.72 39.17 12.99ZM47.39 8.13L47.39 8.13L47.39 8.23L47.54 7.49L49.56 7.49L48.55 12.25Q48.52 12.38 48.51 12.48Q48.50 12.59 48.50 12.70L48.50 12.70Q48.50 13.01 48.64 13.15Q48.78 13.30 49.07 13.30L49.07 13.30Q49.43 13.30 49.73 12.96Q50.02 12.61 50.20 11.98L50.20 11.98L50.79 11.98Q50.34 13.27 49.63 13.92Q48.92 14.57 47.98 14.57L47.98 14.57Q47.38 14.57 47.02 14.24Q46.66 13.90 46.61 13.29L46.61 13.29Q46.17 13.93 45.65 14.25Q45.12 14.57 44.52 14.57L44.52 14.57Q43.65 14.57 43.16 13.99Q42.66 13.40 42.66 12.32L42.66 12.32Q42.66 11.54 42.90 10.68Q43.13 9.83 43.55 9.13L43.55 9.13Q44.07 8.30 44.76 7.86Q45.44 7.42 46.26 7.42L46.26 7.42Q46.80 7.42 47.10 7.61Q47.39 7.80 47.39 8.13ZM46.59 11.98L47.26 8.82Q47.26 8.61 47.11 8.45Q46.96 8.29 46.69 8.29L46.69 8.29Q45.92 8.29 45.33 9.58Q44.73 10.86 44.73 12.12L44.73 12.12Q44.73 12.67 44.88 12.94Q45.04 13.22 45.43 13.22L45.43 13.22Q45.79 13.22 46.14 12.87Q46.48 12.52 46.59 11.98L46.59 11.98ZM52.77 9.17L51.65 14.49L49.63 14.49L51.11 7.49L53.13 7.49L52.95 8.36Q53.56 7.84 53.92 7.67Q54.28 7.49 54.64 7.49L54.64 7.49Q55.08 7.49 55.34 7.79Q55.61 8.09 55.61 8.54L55.61 8.54Q55.61 8.97 55.33 9.27Q55.05 9.56 54.60 9.56L54.60 9.56Q54.36 9.56 54.23 9.45Q54.10 9.34 54.04 8.99L54.04 8.99Q54.00 8.76 53.94 8.70Q53.89 8.64 53.79 8.64L53.79 8.64Q53.55 8.64 53.34 8.74Q53.13 8.83 52.77 9.17L52.77 9.17ZM62.29 12.99L62.29 12.99Q62.29 12.74 62.35 12.36Q62.41 11.98 62.61 11.16L62.61 11.16Q62.80 10.36 62.86 10.01Q62.92 9.66 62.92 9.42L62.92 9.42Q62.92 9.07 62.79 8.89Q62.66 8.71 62.41 8.71L62.41 8.71Q62.08 8.71 61.79 9.05Q61.50 9.39 61.32 10.00L61.32 10.00L60.37 14.49L58.35 14.49L59.37 9.66Q59.40 9.58 59.41 9.49Q59.42 9.41 59.42 9.31L59.42 9.31Q59.42 9.03 59.30 8.86Q59.19 8.69 59.00 8.69L59.00 8.69Q58.63 8.69 58.34 9.04Q58.04 9.38 57.86 10.00L57.86 10.00L56.91 14.49L54.89 14.49L56.38 7.49L58.39 7.49L58.24 8.22Q58.59 7.81 59.01 7.62Q59.43 7.42 59.95 7.42L59.95 7.42Q60.56 7.42 60.92 7.72Q61.28 8.02 61.39 8.62L61.39 8.62Q61.78 8.02 62.26 7.73Q62.73 7.43 63.34 7.43L63.34 7.43Q64.08 7.43 64.48 7.84Q64.89 8.25 64.89 9.02L64.89 9.02Q64.89 9.34 64.81 9.78Q64.74 10.22 64.51 11.13L64.51 11.13Q64.33 11.84 64.27 12.14Q64.22 12.43 64.22 12.63L64.22 12.63Q64.22 12.92 64.36 13.07Q64.50 13.22 64.78 13.22L64.78 13.22Q65.13 13.22 65.38 12.98Q65.63 12.74 65.95 11.98L65.95 11.98L66.54 11.98Q66.09 13.29 65.46 13.93Q64.82 14.57 63.94 14.57L63.94 14.57Q63.15 14.57 62.72 14.15Q62.29 13.72 62.29 12.99Z"></path></g><!----><!----></svg>